<svg version="1.1" id="Ebene_1" xmlns:x="ns_extend;" xmlns:i="ns_ai;" xmlns:graph="ns_graphs;" xmlns="http://www.w3.org/2000/svg" xmlns:xlink="http://www.w3.org/1999/xlink" x="0px" y="0px" viewBox="0 0 52.9 52.9" style="enable-background:new 0 0 52.9 52.9;" xml:space="preserve">
 <style type="text/css">
  .st0{fill:#FEE600;}
 </style>
 <metadata>
  <sfw xmlns="ns_sfw;">
   <slices>
   </slices>
   <sliceSourceBounds bottomLeftOrigin="true" height="52.9" width="52.9" x="0" y="28.5">
   </sliceSourceBounds>
  </sfw>
 </metadata>
 <g>
  <polygon class="st0" points="0,0 52.9,0 52.9,52.9 0,52.9 	">
  </polygon>
  <polygon class="st0" points="1.4,51.4 1.4,1.5 51.4,1.5 51.3,51.4 	">
  </polygon>
  <path d="M26.4,32.8l15.9,15.9l6.2-6.2L32.6,26.6l3.1-3.1v-6.2l2.2-2.2v5.1l2.2,2.1l7.8-7.8l2.1,2.1c-0.1-3.6-1.6-7-4.1-9.5
		c-2.5-2.8-6.7-3-9.5-0.5c-0.1,0.1-0.2,0.1-0.2,0.2l-7.5,7.5l1.9,1.9l-4.1,4.1l-4.1-4.1l1.9-1.9l-7.5-7.5C14.2,4.2,10,4.2,7.4,6.7
		C7.3,6.9,7.2,7,7.1,7.1c-2.5,2.5-4,5.9-4,9.5l2-2.1l7.8,7.8l2.2-2.2V15l2.2,2.2v6.2l3.1,3.1l-16,15.8l6.2,6.2L26.4,32.8z">
  </path>
 </g>
</svg>