<svg version="1.1" id="Layer_1" xmlns="http://www.w3.org/2000/svg" xmlns:xlink="http://www.w3.org/1999/xlink" x="0px" y="0px" viewBox="0 0 69.7 62.5" style="enable-background:new 0 0 69.7 62.5;" xml:space="preserve">
 <style type="text/css">
  .st0{fill-rule:evenodd;clip-rule:evenodd;fill:#FFFFFE;}
	.st1{fill-rule:evenodd;clip-rule:evenodd;fill:#FFE52B;}
	.st2{fill-rule:evenodd;clip-rule:evenodd;fill:#1A1919;}
 </style>
 <g>
  <g>
   <path class="st0" d="M68.9,29.2l0.9-2.9l-3,0.1c-0.2,0-2.1,0-3.9-1.3c0.1,0,0.2,0,0.4,0c1.8,0,3.6-1.1,4.3-2.7l1.3-2.8
			c-1.6,0-3.1-0.2-3.1-0.2s-1.2-0.1-2.5-1.5c-1-1-2.2-1.5-3.5-1.5c-0.5,0-1.1,0.1-1.5,0.2c0.1-0.2,0.1-0.4,0.2-0.8
			c0.4-2.7-1.3-4.8-1.3-4.8l-2.3-2.8l-1.4,3.2c0,0-0.3,0.8-1,1.2c-0.2-1-0.6-2.1-1.6-3.1c-1.8-1.9-4.2-2.3-5.4-2.3
			c-0.5,0-1,0.1-1.1,0.1l-2.7,0.5c0.1-0.6,0.5-1.6,1.1-2.6l1.5-2.4l-3.8,0.4l-1.2-2.6L37,2.2L34.9,0l-2.2,2.2L30.3,1l-1.1,2.5
			L25.4,3L27,5.4c0.6,1,1,2.1,1.1,2.6l-2.6-0.5h-0.1c-0.1,0-0.5-0.1-1.1-0.1c-1.2,0-3.5,0.3-5.4,2.3c-1,1.1-1.5,2.2-1.6,3.1
			c-0.6-0.3-1-1.1-1-1.1l-1.4-3.2l-2.3,2.8c-0.3,0.3-1.6,2.3-1.3,4.7c0,0.2,0.1,0.4,0.2,0.8c-0.4-0.3-1-0.4-1.5-0.4
			c-1.3,0-2.5,0.5-3.5,1.5C5.2,19.2,4,19.3,4,19.3s-1.2,0.2-3.1,0.2l1.3,2.9c0.8,1.6,2.5,2.7,4.3,2.7c0.1,0,0.2,0,0.4,0
			c-1.7,1.3-3.6,1.3-3.8,1.3L0,26.3l1,2.9c0.4,1.5,2.1,4,5,4.2c-0.3,1.4-1.1,2.9-2.6,3.6L1,37.9l1.2,2.2c0.6,1.2,2.4,2.5,4.7,2.5
			c0.5,0,1,0,1.5-0.1c0.1,0.5,0.2,1.1,0.4,1.6c0.6,2.1,0.1,3.6,0.1,3.6L7.8,50l2.5,0.6c0,0,0.8,0.2,1.7,0.2c0.4,0,0.9,0,1.2-0.1
			c0.3-0.1,0.5-0.1,0.9-0.2c0.3,0.5,0.8,1.1,1.2,1.6c1.6,1.6,3.9,2.5,6.7,2.5l0,0H24l-4.2,1.7l3.2,1.5c1.2,0.5,2.6,1.3,4,1.7
			l-0.4,1.1l1.1,0.5c0.1,0,2.3,1,5.7,1.2c0,0,0.9,0,1.3,0s1.3,0,1.3,0c3.6-0.2,5.6-1.2,5.7-1.2l1.1-0.5l-0.4-1.1
			c1.4-0.5,2.9-1.2,4-1.7l3.1-1.5l-4.2-1.7h2.1c2.9,0,5.2-0.9,6.7-2.5c0.4-0.4,0.9-1,1.2-1.6c0.2,0.1,0.5,0.2,0.9,0.2
			c0.4,0.1,0.8,0.1,1.2,0.1c1,0,1.7-0.2,1.7-0.2l2.5-0.6l-1.1-2.3c0-0.1-0.6-1.5,0.1-3.6c0.2-0.5,0.3-1.1,0.4-1.6
			c0.4,0.1,1,0.1,1.5,0.1c2.9,0,4.4-2.1,4.7-2.6l1.2-2.2l-2.3-1c-1.6-0.6-2.3-2.2-2.6-3.6C66.8,33.1,68.3,30.6,68.9,29.2z">
   </path>
   <path class="st0" d="M34.9,8.9c-2.4,0-4.2,0.8-4.5,1.7l4.5,1.8l4.7-1.8C39.1,9.6,37.2,8.9,34.9,8.9z">
   </path>
   <path class="st0" d="M35,57.1L35,57.1c-1.5,0-3.6-0.3-4.5-0.5l-1.2,3.1c0.8,0.3,3.4,0.8,5.6,0.8c2.3,0,4.9-0.5,5.6-0.8l-1.2-3.1
			C38.4,56.7,36.4,57.1,35,57.1z">
   </path>
   <path class="st0" d="M43.7,53.9c-0.9,0.5-2.8,1.2-3.9,1.6l1,2.6c1.7-0.4,3.1-1.1,4.3-1.6l-1.9-0.6L43.7,53.9z">
   </path>
   <path class="st0" d="M26,53.9l0.5,1.9l-1.9,0.6c1.2,0.6,2.6,1.2,4.3,1.6l1-2.6C28.8,55.1,26.8,54.3,26,53.9z">
   </path>
   <path class="st0" d="M34.9,5.8c1.8,0,3.6,0.4,5,1.2c0.1-0.4,0.3-1,0.5-1.5l-0.5,0.1l-0.5,0.1l-0.2-0.5l-0.6-1.5l-1.3,0.6l-0.5,0.2
			l-0.3-0.2l-1.4-1.4l-1.4,1.4L33,4.8l-0.5-0.2l-1.1-0.8l-0.6,1.5l-0.2,0.5L30,5.7l-0.5-0.1c0.2,0.5,0.4,1.1,0.5,1.5
			C31.3,6.3,33,5.8,34.9,5.8z">
   </path>
   <path class="st0" d="M62.6,22.7c0.2,0.1,0.4,0.1,0.8,0.1c1,0,2.1-0.6,2.4-1.4c0,0-1.8-0.1-3.9-2.2c-0.6-0.6-1.3-0.9-1.9-0.9
			c-0.9,0-1.6,0.4-1.6,0.4C60.6,20.2,61.2,22.3,62.6,22.7z">
   </path>
   <path class="st0" d="M6.5,23c0.2,0,0.4,0,0.8-0.1c1.4-0.4,1.9-2.6,4.3-3.9c0,0-0.6-0.4-1.6-0.4c-0.5,0-1.3,0.2-1.9,0.9
			c-2.1,2.1-3.9,2.2-3.9,2.2C4.4,22.2,5.4,23,6.5,23z">
   </path>
   <path class="st0" d="M61.8,37.8c-1.8-1-3-3.5-3.4-4.3c-0.3,4.9-2.7,8.3-5.5,11.6c-1.4,1.7-1.9,3.4-1.9,3.4s0.3-1.8,1.5-3.4
			c2.6-3.1,5.1-7,5.3-11.6c0.1-3.1-0.6-5.7-1.9-7.8c0.8,2.2,0.6,4.9-1.8,7.4c0,0,4.8-5.7-1.9-11.6c-2.7-2.3-5.6-3.6-7.1-4.7
			c5.4,1.7,8.1-0.2,8.1-0.2c-1.7,1.5-4,1.5-5.4,1.3c0.4,0.2,0.8,0.3,1.2,0.6c4.5,2.5,8.8,6.6,9.4,12.3l0,0
			C59.4,36.4,61.8,37.8,61.8,37.8z M63.2,31.3h0.1c2.6,0,3.5-2.7,3.5-2.7l0,0c-0.4,0-4.2-0.1-6.9-3.6c-1.7-2.3-3.2-4.2-6.1-5h-0.3
			l-0.1-0.3c-0.1-0.4,0.2-0.9,0.9-1.3c4-2.6,1.3-6,1.3-6S54.5,15,51.9,15c-0.1,0-0.1,0-0.2,0c-0.3,0-0.5,0-0.9-0.1l-0.4-0.1
			c0,0,0.8-1.9-1-3.8c-1.4-1.3-2.9-1.5-3.9-1.5c-0.4,0-0.8,0.1-0.8,0.1c0.9,1.2,1.5,3,0.5,4.2c-0.9,1-3,1.1-3,2.6
			c0,0.6,0.5,1.4,1.6,2.1c3.2,2.1,6.4,4.7,7.7,8.3c1.6,4.4-0.2,7.5-2.8,9.2c0,0,0.9,0.8,2.1,0.9c0.2,0,0.4,0,0.8,0
			c2.6,0,3.9-1.2,3.9-1.2s-0.2,1.6-1.5,3.1c-1.2,1.4-2.8,2.3-5.3,2.3c0,0-0.1,1.2,1,2.2c0.6,0.6,2.3,0.9,2.3,0.9s-3,0.6-3.4,5.1
			c-0.2,2.4-0.8,3.2-0.8,3.2l0,0c6.9,0,6.8-6,6.8-6s0.4,1.7,2.4,2.3c0.2,0.1,0.4,0.1,0.8,0.1c0.6,0,1.2-0.1,1.2-0.1s-1-2.2,0-5.2
			c0.9-2.5,0.6-4.3,0.6-4.3s1,1.4,3.2,1.4l0,0c1.9,0,2.8-1.5,2.8-1.5c-4.7-1.9-4.2-8.1-4.2-8.1S62,31.3,63.2,31.3z">
   </path>
   <path class="st0" d="M16.8,45.1c-2.8-3.2-5.2-6.7-5.5-11.6c-0.3,0.9-1.5,3.4-3.4,4.3c0,0,2.4-1.4,3.5-7l0,0
			c0.8-5.7,4.9-9.9,9.4-12.3c0.4-0.2,0.9-0.4,1.2-0.6c-1.4,0.2-3.7,0.2-5.4-1.3c0,0,2.7,1.9,8.1,0.2c-1.5,1-4.4,2.4-7.1,4.7
			C10.8,27.3,15.6,33,15.6,33c-2.4-2.5-2.5-5.2-1.8-7.4c-1.3,2.1-2.1,4.7-1.9,7.8C12,38,14.5,41.9,17.1,45c1.3,1.5,1.5,3.4,1.5,3.4
			S18.3,46.8,16.8,45.1z M18,44.1c0,0,1.6-0.2,2.3-0.9c1.1-1,1-2.2,1-2.2c-2.5,0-4-0.9-5.3-2.3c-1.3-1.5-1.5-3.1-1.5-3.1
			s1.3,1.2,3.9,1.2c0.2,0,0.4,0,0.8,0c1.2-0.1,2.1-0.9,2.1-0.9c-2.7-1.7-4.5-4.7-2.9-9.2c1.3-3.6,4.5-6.3,7.7-8.3
			c1.1-0.6,1.6-1.4,1.6-2.1c0-1.5-2.2-1.5-3-2.6c-1-1.2-0.3-3,0.5-4.2c0,0-0.3-0.1-0.8-0.1c-0.9,0-2.5,0.2-3.8,1.6
			c-1.7,1.8-1,3.8-1,3.8l-0.4,0.1C18.7,15,18.5,15,18.2,15c-0.1,0-0.1,0-0.2,0c-2.5,0-3.7-2.6-3.7-2.6s-2.7,3.4,1.3,6
			c0.6,0.4,1,0.9,0.9,1.3L16.3,20H16c-2.8,0.8-4.3,2.7-6.1,5c-2.7,3.5-6.5,3.6-6.9,3.6l0,0c0,0,0.9,2.7,3.5,2.7h0.1
			c1.2,0,1.7-0.5,1.7-0.5s0.4,6.3-4.2,8.1c0,0,0.9,1.5,2.8,1.5l0,0c2.4,0,3.2-1.4,3.2-1.4s-0.1,1.8,0.6,4.3c1,3,0,5.2,0,5.2
			s0.5,0.1,1.2,0.1c0.2,0,0.5,0,0.8-0.1c1.9-0.4,2.4-2.3,2.4-2.3s-0.2,6,6.8,6l0,0c0,0-0.6-0.9-0.8-3.2C20.9,44.6,18,44.1,18,44.1z">
   </path>
   <path class="st0" d="M33.3,22h3.2v1.1c-0.4-0.4-1.2-0.3-1.2-0.3v1.6c0,0,0,0.8,0.3,1.2h-1.6c0.3-0.3,0.3-1.2,0.3-1.2v-1.6
			c0,0-0.8-0.1-1.2,0.3V22H33.3z M29.8,22.1c0.1,0.1,0.2,0.2,0.3,0.4c0,0,0,0.1,0.1,0.1c0.1,0.1,0.2,0.3,0.3,0.4c0,0,0,0.1,0.1,0.1
			c0.1,0.2,0.2,0.3,0.3,0.5c1,1.7,2.6,2.8,4,2.8c1.4,0,3-1.1,4-2.8c0.1-0.2,0.2-0.4,0.3-0.5c0,0,0,0,0-0.1c0.1-0.1,0.2-0.3,0.3-0.4
			c0,0,0-0.1,0.1-0.1c0.1-0.1,0.2-0.3,0.3-0.4c0,0,0,0,0.1-0.1c0.5-0.5,1.1-1,1.9-1.2l-0.3-0.2l0,0l-1.4-0.9L39,18.8L35.1,21l0,0
			l0,0l-3.9-2.2l-1.4,0.9l-1.6,1l0,0l-0.3,0.2C28.6,21.1,29.1,21.5,29.8,22.1C29.7,22.1,29.7,22.1,29.8,22.1z">
   </path>
   <path class="st0" d="M33.7,14.8v1.1l-0.2-0.1c0,0-0.3-0.1-0.9-0.5c-0.9-0.6-0.9-1.3-0.9-1.3L33.7,14.8z M34.5,19.8v-6.6l-4.2-1.5
			l1.1,6.4L34.5,19.8z">
   </path>
   <path class="st0" d="M36.2,14.8l1.9-0.8c0,0,0,0.6-0.9,1.3c-0.5,0.4-0.9,0.4-0.9,0.5L36.2,16V14.8z M38.3,18.1l1.1-6.4l-4.2,1.4
			v6.6L38.3,18.1z">
   </path>
   <path class="st0" d="M28.6,35.1c0.4,0.1,0.9,0.2,1.2,0.2v-0.1c0-0.1,0-0.1,0.1-0.2c0.1-0.3,0.1-0.8,0.1-1.1
			c-0.2-0.1-0.4-0.3-0.5-0.5c-0.1-0.3-0.3-0.4-0.6-0.4c-0.4,0-0.9,0.2-1.1,0.3C27.5,34.1,28.1,35,28.6,35.1z">
   </path>
   <path class="st0" d="M37.9,31.6c-0.8,0.9-2.3,2.4-2.4,2.4l-0.1,0.1L30.5,34c0,0.4-0.1,0.9-0.1,1.2v0.1l5.7,1.1
			c0.6-0.4,2.3-1.6,2.9-2.1c-0.4-0.6-0.5-1.5-0.4-2.1C38.3,32,38.1,31.8,37.9,31.6z">
   </path>
   <path class="st0" d="M38.5,25.8c-1.1,1.1-2.2,1.5-3.1,1.6c-0.2,0-0.3,0-0.5,0l0,0c-0.2,0-0.3,0-0.5,0c-0.2,0-0.3,0-0.5-0.1
			c-0.1,0.2-0.1,0.8,0.1,1.3c0.2,0.4,0.6,0.8,1.2,1l0.2,0.1v0.2c0,0.1,0,1.5,1.6,1.8c0.2-0.2,0.4-0.5,0.6-0.6
			c-0.3-0.8-0.1-1.5,0.3-1.8c0,0.1-0.2,1.9,1.3,2.6l0.2,0.1l-0.1,0.2c0,0.1-0.5,1.8,1.3,2.5l0.3,0.1l-0.1,0.3c0,0.1-0.8,1.7,0.9,2.6
			h3.6v-2.8c-1.3-0.1-1.8-1.2-1.9-1.9c-0.5-0.1-1.1-0.3-1.4-0.8c-0.8-1-0.1-1.9-0.1-1.9s0,1,0.5,1.6c0.3,0.3,0.6,0.5,1.2,0.5h0.2
			v0.2c0,0.1,0.1,1.4,1.4,1.5v-5.8c0-0.9,0.2-1.8,0.5-2.6h-7.1V25.8z">
   </path>
   <path class="st0" d="M28.9,28.5l-0.1,3.7l0.4,0.1l1-3.6l-0.5-1.1L28.9,28.5z">
   </path>
   <path class="st0" d="M31.2,42.1c-0.1,0-0.2-0.1-0.2-0.2s0.1-0.2,0.2-0.2c0.1,0,0.2,0.1,0.2,0.2C31.4,42.1,31.3,42.1,31.2,42.1z
			 M40.3,45.5L40.3,45.5c0.8,0.2,0.9,2.5,2.1,2.7c0.1,0,0.2,0,0.3,0c0.3,0,0.5-0.1,0.8-0.4c0,0-0.5-0.9-1-1.5
			c-0.5-0.8-1-1.7-2.1-1.7h-0.1c-0.3,0-0.5,0.2-0.5,0.2c-0.4-0.2-0.9-0.3-1.2-0.3c-0.6,0-1.2,0.3-1.4,0.3l0,0l-2.5-0.2
			c-0.3,0-0.6-0.4-0.8-0.5v-0.1c0-0.1,0-0.1,0-0.2c-0.1-1.9-1.5-2.7-2.1-2.7c0,0,0.1-0.3-0.1-0.5L31.2,41l-1.7-0.9l1.2,1.4l-1,1.2
			c-0.1,0.1-0.1,0.3-0.1,0.4l0.4,0.4l0.5-0.3h0.1c0.1,0,0.4,0,0.5,0c0.2,0,0.4,0,0.4-0.2c-0.1,0.8-0.8,1.9-0.3,2.9l0.3,0.8l-2.1-0.3
			l-1,1.6c-0.3,0.5-0.3,1.1-0.1,1.4l0.3,0.4c0,0,0.5-0.5,0.6-0.9l0.1-0.3c-0.1-0.1-0.1-0.3,0-0.4l0.6-1l2.4,0.5l0.1-0.2
			c0.2-0.3,0.4-0.3,0.6-0.3c0.1,0,0.2,0,0.3,0c0.4,0.1,1.2,0.2,1.9,0.2c0.9,0,1.6-0.1,2.1-0.6c0.9,1.3,2.7,1.5,2.5,2.2l-0.4,2.3
			c0.3,0,0.6,0,0.9-0.1l0.4-2.4c0-0.2,0.1-0.6,0.1-0.6c-0.2-0.2-0.5-0.5-0.9-1c-0.3-0.6-0.1-1-0.4-1.7
			C39.9,45.6,40.1,45.5,40.3,45.5z">
   </path>
   <path class="st0" d="M27.8,47.5c0,0,0.8-0.3,0.9-0.5l-0.1-0.2c-0.1-0.2-0.1-0.3,0.1-0.4l0.9-0.6L31,46c0,0-0.2-0.3-0.2-0.8
			l-1.4-0.3L28,45.7c-0.5,0.4-0.6,1.1-0.4,1.5L27.8,47.5z">
   </path>
   <path class="st0" d="M38.1,51.3c0.2,0,0.5,0,0.9,0c0,0,0.8-2.2,0.8-2.3c-0.4-0.2-1.3-0.6-1.6-0.9c0.2,0.3,0.8,0.8,0.6,1L38.1,51.3
			z">
   </path>
   <path class="st1" d="M45.3,38.3H24.6v7.8c0,3.1,2.3,5.2,5.7,5.2c2.8,0,3.6,0.1,4.7,1.2c0.8-0.8,1.3-1,2.6-1.1v-0.1l0.6-2.1
			L37.1,48c-0.4,0.1-0.8,0.2-1.4,0.2c-0.6,0-1.3-0.1-2.1-0.2c-0.1,0-0.1,0-0.2,0s-0.1,0-0.1,0l-0.1,0.2L33,48.6l-0.5-0.1l-1.9-0.4
			l-0.3,0.4l0,0l0.2,0.2l-0.1,0.4c-0.1,0.4-0.6,1-0.8,1.1L29,50.8l-0.4-0.5l-0.3-0.4c-0.3-0.4-0.4-1-0.2-1.6l0,0l-0.5,0.2l-0.2-0.5
			l-0.2-0.4c-0.3-0.6-0.2-1.7,0.6-2.3l1.6-0.9l1.5,0.3c0-0.1,0.1-0.6,0.1-0.8h-0.1L30,44.2l-0.9-0.5c0,0-0.3-0.3,0-0.6l0.9-1.2
			L27.8,39l3.1,1.3l0.2-0.2l0.4-0.5l0.5,0.4c0.1,0.1,0.2,0.3,0.2,0.4c0.9,0.3,2.5,1.4,2.6,3l-0.5,0.2l0,0c0.1,0.1,0.2,0.2,0.2,0.2
			l2.3,0.2c0.1,0,0.1,0,0.2-0.1c0.3-0.1,0.8-0.2,1.2-0.2c0.4,0,0.8,0.1,1.2,0.3c0.1,0,0.3-0.1,0.5-0.1h0.1c1.2,0,1.8,0.9,2.3,1.6
			c0.1,0.1,0.1,0.2,0.2,0.3c0.4,0.6,1,1.5,1,1.5l0.2,0.4l-0.3,0.3c-0.2,0.3-0.5,0.6-1.2,0.6c-0.1,0-0.2,0-0.4,0
			c-0.1,0-0.2-0.1-0.3-0.1c0,0.1,0,0.2-0.1,0.4L41,51.2c2.4-0.5,3.9-2.4,3.9-5L45.3,38.3z">
   </path>
   <path class="st1" d="M24.6,37.7h16.1c-0.8-0.9-0.8-1.8-0.5-2.6c-0.2-0.1-0.4-0.2-0.6-0.4c-0.6,0.4-2.6,1.8-3,2.2l-0.1,0.1
			l-6.3-1.2H30c-0.1,0-0.3,0-0.6,0c-0.1,0.3-0.3,0.4-0.5,0.4h-0.1c-0.2,0-0.3-0.1-0.4-0.2c-0.1-0.1-0.1-0.3-0.1-0.4v-0.1
			c-0.6-0.4-1.3-1.5-1-2.6v-0.1l0.1-0.1c0,0,0.1-0.1,0.3-0.2L27,32.5c-0.2,0-0.3-0.2-0.2-0.3c0-0.2,0.2-0.3,0.3-0.2l1.1,0.2l0.1-3.9
			l1.6-1.7l1,2.2l-1.1,3.7l1,0.1c0.2,0,0.3,0.2,0.2,0.3c0,0.1-0.1,0.2-0.3,0.2l0,0l-0.8-0.1c0,0,0,0,0,0.1c0.1,0.2,0.2,0.3,0.3,0.3
			l4.8,0.1c0.2-0.2,0.8-0.6,1.2-1.2c-1.2-0.4-1.6-1.5-1.7-2.2c-0.6-0.3-1.1-0.8-1.4-1.3c-0.3-0.6-0.2-1.4-0.1-1.7
			c-0.6-0.2-1.3-0.6-2.1-1.3h-7.3c0.3,0.9,0.5,1.7,0.5,2.6v9.3H24.6z">
   </path>
   <path class="st2" d="M31.2,41.7c-0.1,0-0.2,0.1-0.2,0.2c0,0.1,0.1,0.2,0.2,0.2c0.1,0,0.2-0.1,0.2-0.2
			C31.4,41.8,31.3,41.7,31.2,41.7z">
   </path>
   <path class="st2" d="M40.7,58l-1-2.6c1.1-0.3,3-1.1,3.9-1.6l-0.5,1.9l1.9,0.6C44,57.1,42.4,57.6,40.7,58z M34.9,60.4
			c-2.3,0-4.9-0.5-5.6-0.8l1.2-3.1c1,0.3,2.9,0.5,4.4,0.5H35c1.4,0,3.5-0.3,4.4-0.5l1.2,3.1C39.7,59.9,37.1,60.4,34.9,60.4z
			 M24.7,56.4l1.9-0.6L26,53.9c0.9,0.5,2.8,1.2,3.9,1.6l-1,2.6C27.3,57.6,25.9,57.1,24.7,56.4z M45.1,55.9L44,55.4l0.3-1.2l0.3-1.3
			c0,0-2.2,1.2-5.1,2.1c-0.9,0.2-1.5,0.3-1.5,0.3v0.9c0,0-1.6,0.3-3.2,0.3h-0.1c-1.6,0-3.2-0.3-3.2-0.3v-1c0,0-0.6-0.1-1.5-0.3
			c-2.9-0.9-5.1-2.1-5.1-2.1l0.3,1.3l0.3,1.2l-1.2,0.4L23,56.3c1.5,0.8,3.6,1.8,5.5,2.4L28,59.9c0,0,2.5,1.1,6.5,1.1l0,0h0.1l0,0
			c4.1,0,6.5-1.1,6.5-1.1l-0.4-1.2c1.9-0.5,4-1.6,5.5-2.4L45.1,55.9z">
   </path>
   <path class="st2" d="M29.9,5.6l0.5,0.1l0.2-0.5l0.8-1.4l1.3,0.6l0.5,0.2L35,2.9l1.3,1.4l0.4,0.4l0.5-0.2l1.3-0.6l0.6,1.5L39.4,6
			l0.5-0.1l0.5-0.1c-0.2,0.5-0.4,1.1-0.5,1.5c-1.4-0.8-3.1-1.2-5-1.2c-1.8,0-3.6,0.4-5,1.2c-0.1-0.4-0.3-1-0.5-1.5L29.9,5.6z
			 M34.9,6.6c2.4,0,4.3,0.8,5.4,1.6c0,0,0.3-1.9,1.4-3.6l-1.9,0.2l-1-2.2l-1.9,1.1l-1.9-1.8l-1.9,1.8l-1.9-1L30,5L28,4.8
			c1.1,1.7,1.4,3.6,1.4,3.6C30.5,7.5,32.5,6.6,34.9,6.6z">
   </path>
   <path class="st2" d="M65.6,39c0,0-0.9,1.5-2.8,1.5l0,0c-2.3,0-3.2-1.4-3.2-1.4s0.1,1.8-0.6,4.3c-1,3,0,5.2,0,5.2s-0.5,0.1-1.2,0.1
			c-0.2,0-0.5,0-0.8-0.1c-1.9-0.4-2.4-2.3-2.4-2.3s0.2,6-6.8,6h-0.1c0,0,0.6-0.9,0.8-3.2c0.3-4.4,3.4-5.1,3.4-5.1s-1.6-0.2-2.3-0.9
			c-1.1-1-1-2.2-1-2.2c2.5,0,4-0.9,5.3-2.3c1.3-1.5,1.5-3.1,1.5-3.1s-1.3,1.3-3.9,1.3c-0.2,0-0.4,0-0.8,0c-1.2-0.1-2.1-0.9-2.1-0.9
			c2.7-1.7,4.5-4.7,2.8-9.2c-1.3-3.6-4.5-6.3-7.7-8.3c-1.1-0.6-1.6-1.4-1.6-2.1c0-1.5,2.2-1.5,3-2.6c1-1.2,0.3-3-0.5-4.2
			c0,0,0.3-0.1,0.8-0.1c0.9,0,2.5,0.2,3.8,1.6c1.7,1.8,1,3.8,1,3.8l0.4,0.1c0.3,0.1,0.5,0.1,0.9,0.1c0.1,0,0.1,0,0.2,0
			c2.5,0,3.7-2.6,3.7-2.6s2.7,3.4-1.3,6c-0.6,0.4-1,0.9-0.9,1.3l0.1,0.3h0.3c2.8,0.8,4.3,2.7,6.1,5c2.7,3.5,6.5,3.6,6.9,3.6l0,0
			c0,0-0.9,2.7-3.5,2.7H63c-1.2,0-1.7-0.5-1.7-0.5S61,37,65.6,39z M63.3,32.2c3.1,0,4.2-3.2,4.2-3.4l0.3-1.1h-1.2l0,0
			c-0.4,0-3.9-0.1-6.3-3.2l-0.2-0.3c-1.6-2.1-3.1-4-5.8-4.9c0.1-0.1,0.2-0.1,0.3-0.2c1.4-1,2.3-2.1,2.5-3.5c0.3-2.1-1-3.6-1.1-3.7
			l-0.9-1.1l-0.5,1.3c0,0.1-1,2.2-2.9,2.2h-0.1c-0.1,0-0.2,0-0.4,0c0.1-0.9-0.1-2.4-1.4-3.7c-1.5-1.6-3.5-1.8-4.4-1.8
			c-0.5,0-0.9,0.1-0.9,0.1l-1.2,0.2l0.9,1.1c0.6,0.9,1.2,2.4,0.5,3.1c-0.2,0.2-0.6,0.4-1.1,0.6c-0.9,0.4-2.1,1-2.1,2.4
			c0,1,0.8,1.9,2.1,2.7c3.9,2.5,6.3,5,7.4,7.9c1.6,4.3-0.5,6.8-2.5,8.1l-1.2,0.6l0.8,0.8c0.1,0.1,1.1,1,2.5,1.1c0.3,0,0.5,0,0.8,0
			c1,0,1.7-0.1,2.4-0.3c-0.2,0.3-0.4,0.6-0.6,1c-1.2,1.4-2.6,1.9-4.7,2.1h-0.8l0,0.8c0,0.1-0.1,1.6,1.3,2.8c0.2,0.2,0.4,0.3,0.8,0.4
			c-1,0.9-1.8,2.3-2.1,4.8c-0.1,2.1-0.6,2.8-0.6,2.8l-0.9,1.3h1.5c2.5,0,4.4-0.6,5.8-2.1c0.8-0.9,1.3-1.7,1.5-2.6
			c0.4,0.3,1,0.8,1.7,0.9c0.3,0.1,0.5,0.1,1,0.1c0.8,0,1.3-0.1,1.4-0.2l1-0.2l-0.4-0.9c0-0.1-0.9-1.9,0-4.5c0.3-1.1,0.5-2.2,0.6-2.9
			c0.6,0.3,1.4,0.5,2.5,0.5c2.4,0,3.5-1.8,3.6-1.8l0.4-0.9l-0.9-0.3C63,37,62.4,33.8,62.3,32c0.2,0,0.5,0.1,0.9,0.1L63.3,32.2z">
   </path>
   <path class="st2" d="M59.8,18.4c0.5,0,1.3,0.2,1.9,0.9c2.1,2.1,3.9,2.2,3.9,2.2c-0.3,0.8-1.3,1.4-2.4,1.4c-0.2,0-0.4,0-0.8-0.1
			c-1.4-0.4-1.8-2.6-4.3-3.9C58.2,18.9,58.9,18.4,59.8,18.4z M57.8,19.7c1.2,0.6,1.8,1.5,2.5,2.2c0.5,0.8,1.2,1.4,2.1,1.7
			c0.3,0.1,0.6,0.1,1,0.1c1.3,0,2.6-0.8,3.1-1.9l0.5-1.1l-1.2-0.1c-0.1,0-1.6-0.1-3.4-1.9c-0.8-0.8-1.6-1.1-2.5-1.1
			c-1.2,0-1.9,0.5-2.1,0.6l-1.1,0.8L57.8,19.7z">
   </path>
   <path class="st2" d="M58.4,30.7L58.4,30.7c-0.8-5.6-4.9-9.7-9.4-12.2c-0.4-0.2-0.9-0.4-1.2-0.6c1.4,0.2,3.7,0.2,5.4-1.3
			c0,0-2.7,1.9-8.1,0.2c1.5,1,4.4,2.4,7.1,4.7c6.7,5.8,1.9,11.6,1.9,11.6c2.4-2.5,2.5-5.2,1.8-7.4c1.3,2.1,2.1,4.7,1.9,7.8
			c-0.2,4.5-2.7,8.4-5.3,11.6c-1.3,1.5-1.5,3.4-1.5,3.4s0.5-1.6,1.9-3.4c2.8-3.2,5.2-6.7,5.5-11.6c0.3,0.9,1.5,3.4,3.4,4.3
			C61.8,37.8,59.4,36.4,58.4,30.7z">
   </path>
   <path class="st2" d="M22,52.3c-6.9,0-6.8-6-6.8-6s-0.4,1.7-2.4,2.3c-0.2,0.1-0.4,0.1-0.8,0.1c-0.6,0-1.2-0.1-1.2-0.1s1-2.2,0-5.2
			c-0.9-2.5-0.6-4.3-0.6-4.3s-1,1.4-3.2,1.4l0,0C5,40.5,4.1,39,4.1,39c4.7-1.9,4.2-8.1,4.2-8.1s-0.6,0.4-1.8,0.4H6.4
			c-2.6,0-3.5-2.7-3.5-2.7l0,0c0.4,0,4.2-0.1,6.9-3.6c1.7-2.3,3.2-4.2,6.1-5h0.3l0.1-0.3c0.1-0.4-0.2-0.9-0.9-1.3
			c-4-2.6-1.3-6-1.3-6s1.1,2.6,3.7,2.6c0.1,0,0.1,0,0.2,0c0.3,0,0.5,0,0.9-0.1l0.4-0.1c0,0-0.8-1.9,1-3.8c1.3-1.4,2.9-1.6,3.8-1.6
			c0.4,0,0.8,0.1,0.8,0.1c-0.9,1.2-1.5,3-0.5,4.2c0.9,1,3,1.1,3,2.6c0,0.6-0.5,1.4-1.6,2.1c-3.2,2.1-6.4,4.7-7.7,8.3
			c-1.6,4.4,0.2,7.5,2.9,9.2c0,0-0.9,0.8-2.1,0.9c-0.2,0-0.4,0-0.8,0c-2.6,0-3.9-1.2-3.9-1.2s0.2,1.6,1.5,3.1
			c1.2,1.4,2.8,2.3,5.3,2.3c0,0,0.1,1.2-1,2.2c-0.6,0.6-2.3,0.9-2.3,0.9s3,0.6,3.4,5.1C21.4,51.4,22.1,52.3,22,52.3L22,52.3z
			 M22.7,51.9c0,0-0.5-0.8-0.6-2.8c-0.2-2.5-1.1-3.9-2.1-4.8c0.2-0.1,0.5-0.3,0.8-0.4c1.3-1.2,1.3-2.6,1.3-2.8v-0.8h-0.8
			c-2.1,0-3.5-0.6-4.7-2.1c-0.3-0.3-0.5-0.6-0.6-1c0.6,0.2,1.4,0.3,2.4,0.3c0.2,0,0.5,0,0.8,0c1.4-0.1,2.4-1,2.5-1.1l0.8-0.8
			l-0.9-0.5c-2.1-1.3-4.2-3.8-2.6-8.1c1.1-2.8,3.5-5.4,7.4-7.9c1.3-0.9,2.1-1.8,2.1-2.7c0-1.4-1.2-2.1-2.1-2.4
			c-0.4-0.2-0.9-0.4-1.1-0.6c-0.6-0.8-0.1-2.3,0.5-3.1l0.9-1.1L25.3,9c0,0-0.4-0.1-0.9-0.1c-1,0-2.9,0.2-4.4,1.8
			c-1.5,1.2-1.6,2.6-1.6,3.6c-0.1,0-0.2,0-0.4,0h-0.1c-1.9,0-2.8-2.1-2.9-2.2l-0.4-1.3l-0.9,1.1c0,0.1-1.3,1.6-1,3.7
			c0.2,1.3,1.1,2.5,2.5,3.5c0.1,0.1,0.2,0.2,0.3,0.2c-2.7,0.9-4.2,2.8-5.8,4.9l-0.2,0.3c-2.5,3.1-6,3.2-6.4,3.2H1.8l0.3,1.1
			c0,0.1,1.1,3.4,4.2,3.4h0.1c0.3,0,0.6-0.1,0.9-0.1c-0.1,1.7-0.8,5-3.7,6.2l-0.9,0.3l0.4,0.9c0,0.1,1.1,1.8,3.6,1.8
			c1.1,0,1.8-0.2,2.5-0.5c0.1,0.8,0.3,1.8,0.6,2.9c0.9,2.6,0.1,4.4,0,4.5L9.7,49l1,0.2c0.1,0,0.6,0.2,1.4,0.2c0.3,0,0.6,0,0.9-0.1
			c0.8-0.2,1.3-0.5,1.7-0.9c0.2,0.9,0.8,1.7,1.5,2.6c1.3,1.4,3.2,2.1,5.8,2.1h1.5L22.7,51.9z">
   </path>
   <path class="st2" d="M8,19.3c0.6-0.6,1.3-0.9,1.9-0.9c0.9,0,1.6,0.4,1.6,0.4c-2.5,1.3-2.9,3.4-4.3,3.9c-0.2,0.1-0.4,0.1-0.8,0.1
			c-1,0-2.1-0.6-2.4-1.4C4.1,21.4,6,21.3,8,19.3z M6.5,23.7c0.3,0,0.6,0,1-0.1c0.9-0.3,1.4-1,2.1-1.7c0.6-0.8,1.3-1.6,2.5-2.2
			l1.2-0.6l-1.1-0.8c-0.1-0.1-1-0.6-2.1-0.6c-1,0-1.8,0.4-2.5,1.1c-1.7,1.7-3.2,1.9-3.4,1.9L3,20.8l0.5,1.1
			C3.9,23,5.2,23.7,6.5,23.7z">
   </path>
   <path class="st2" d="M11.9,33.5c-0.1-3.1,0.6-5.7,1.9-7.8c-0.8,2.2-0.6,4.9,1.8,7.4c0,0-4.8-5.7,1.9-11.6c2.7-2.3,5.6-3.6,7.1-4.7
			c-5.4,1.7-8.1-0.2-8.1-0.2c1.7,1.5,4,1.5,5.4,1.3c-0.3,0.2-0.8,0.3-1.2,0.6c-4.5,2.5-8.8,6.6-9.4,12.3l0,0c-1.1,5.6-3.5,7-3.5,7
			c1.8-1,3-3.5,3.4-4.3c0.3,4.9,2.7,8.3,5.5,11.6c1.4,1.7,1.9,3.4,1.9,3.4s-0.3-1.8-1.5-3.4C14.6,41.9,12.1,38,11.9,33.5z">
   </path>
   <path class="st2" d="M33.3,22v1.1c0.4-0.4,1.2-0.3,1.2-0.3v1.6c0,0,0,0.8-0.3,1.2h1.5c-0.3-0.3-0.3-1.2-0.3-1.2v-1.6
			c0,0,0.8-0.1,1.2,0.3V22H33.3z">
   </path>
   <path class="st2" d="M32.6,15.3c0.5,0.4,0.9,0.4,0.9,0.5l0.2,0.1v-1.1l-1.9-0.8C31.7,14,31.7,14.6,32.6,15.3z">
   </path>
   <path class="st2" d="M37.1,15.3C38,14.6,38,14,38,14l-1.9,0.8v1.1l0.2-0.1C36.4,15.7,36.6,15.7,37.1,15.3z">
   </path>
   <path class="st2" d="M34.9,12.5l-4.5-1.8c0.4-1,2.2-1.7,4.5-1.7s4.2,0.8,4.7,1.7L34.9,12.5z M38.3,18.1l-3.1,1.6v-6.6l4.2-1.4
			L38.3,18.1z M40.3,19.9l1.4,0.9l0,0L42,21c-0.8,0.2-1.4,0.6-1.9,1.2c0,0,0,0-0.1,0.1c-0.1,0.1-0.2,0.2-0.3,0.4c0,0,0,0-0.1,0.1
			c-0.1,0.1-0.2,0.3-0.3,0.4c0,0,0,0,0,0.1c-0.1,0.2-0.2,0.3-0.3,0.5c-1,1.7-2.6,2.8-4,2.8s-3-1.1-4-2.8c-0.1-0.2-0.2-0.3-0.3-0.5
			c0,0,0-0.1-0.1-0.1c-0.1-0.1-0.2-0.3-0.3-0.4c0,0,0-0.1-0.1-0.1c-0.1-0.1-0.2-0.2-0.3-0.4c0,0,0,0-0.1-0.1c-0.5-0.5-1.1-1-1.9-1.2
			l0.3-0.2l0,0l1.4-0.9l1.4-0.9l3.9,2.2l0,0l0,0l3.9-2.2L40.3,19.9z M45.8,25.8c-0.3,0.9-0.5,1.7-0.5,2.6v5.8
			c-1.2-0.2-1.4-1.5-1.4-1.5v-0.2h-0.2c-0.5,0-0.9-0.3-1.2-0.5c-0.5-0.6-0.6-1.5-0.5-1.6c0,0-0.6,1,0.1,1.9c0.3,0.4,0.8,0.6,1.4,0.8
			c0.1,0.8,0.6,1.7,1.9,1.9v2.8h-3.6c-1.6-1-1-2.5-0.9-2.6l0.1-0.3l-0.4-0.2c-1.8-0.6-1.3-2.5-1.3-2.5l0.1-0.2l-0.2-0.1
			c-1.5-0.6-1.3-2.5-1.3-2.6c-0.4,0.3-0.6,1.1-0.3,1.8c-0.2,0.2-0.4,0.4-0.6,0.6c-1.5-0.4-1.6-1.8-1.6-1.8v-0.2l-0.2-0.1
			c-0.6-0.2-1-0.5-1.2-1c-0.2-0.5-0.1-1-0.1-1.3c0.2,0,0.3,0.1,0.5,0.1c0.2,0,0.3,0,0.5,0l0,0c0.2,0,0.3,0,0.5,0
			c1-0.1,2.1-0.5,3.1-1.6H45.8z M41.4,51.1l0.4-2.1c0-0.1,0-0.2,0.1-0.4c0.1,0,0.2,0.1,0.3,0.1s0.3,0,0.4,0c0.6,0,1-0.3,1.2-0.6
			l0.3-0.3L44,47.3c0,0-0.5-0.9-1-1.5c-0.1-0.1-0.2-0.2-0.2-0.3c-0.4-0.8-1.1-1.6-2.3-1.6h-0.1c-0.2,0-0.3,0-0.5,0.1
			c-0.4-0.2-0.8-0.3-1.2-0.3c-0.5,0-1,0.1-1.2,0.2c-0.1,0-0.1,0-0.2,0.1L35,43.7c0,0-0.1-0.1-0.2-0.2l0,0l0.5-0.2
			c-0.1-1.6-1.7-2.7-2.6-3c0-0.2-0.1-0.3-0.2-0.4l-0.5-0.4l-0.6,0.6l-0.2,0.2L27.8,39l2.1,2.6L29,42.8c-0.3,0.3,0,0.6,0,0.6l0.9,0.5
			l0.9-0.3h0.1c0,0.1-0.1,0.6-0.1,0.8l-1.5-0.3l-1.6,0.9c-0.9,0.6-1,1.6-0.6,2.3l0.2,0.4l0.2,0.5l0.5-0.2l0,0
			c-0.2,0.6-0.1,1.3,0.2,1.6l0.3,0.4l0.4,0.5l0.5-0.5c0.1-0.1,0.6-0.6,0.8-1.1l0.1-0.3l-0.2-0.2l0,0l0.3-0.4l1.9,0.4l0.4,0.1
			l0.2-0.4l0.1-0.2c0,0,0,0,0.1,0s0.1,0,0.2,0c0.8,0.1,1.4,0.2,2.1,0.2c0.5,0,1,0,1.4-0.2c0,0,1.1,1.2,1.1,1.3l-0.6,2.1v0.1
			c-1.2,0.1-1.8,0.3-2.6,1.1c-1.1-1.1-1.8-1.2-4.7-1.2c-3.4,0-5.7-1.9-5.7-5.2v-7.8H45V46C45.3,48.7,43.7,50.6,41.4,51.1z
			 M28.6,46.7l0.1,0.2c-0.1,0.2-0.9,0.5-0.9,0.5L27.6,47c-0.2-0.4-0.1-1.1,0.4-1.5l1.3-0.8l1.4,0.3c0,0.4,0.2,0.8,0.2,0.8l-1.4-0.3
			l-0.9,0.6C28.5,46.3,28.5,46.6,28.6,46.7z M41.1,48.9l-0.4,2.4c-0.3,0-0.5,0.1-0.9,0.1l0.4-2.3c0.1-0.6-1.6-0.9-2.5-2.2
			c-0.4,0.4-1.2,0.6-2.1,0.6c-0.8,0-1.5-0.1-1.9-0.2c-0.1,0-0.2,0-0.3,0c-0.2,0-0.5,0.1-0.6,0.3L32.7,48l-2.4-0.5l-0.6,1
			c-0.1,0.2-0.1,0.3,0,0.4l0.2,0.2c-0.1,0.3-0.6,0.9-0.6,0.9l-0.3-0.4c-0.3-0.3-0.2-0.9,0.1-1.4l1-1.6l2.1,0.3L31.7,46
			c-0.4-1,0.2-2.2,0.3-2.9c0,0.2-0.2,0.2-0.4,0.2c-0.2,0-0.4,0-0.5,0c-0.1,0-0.1,0-0.1,0l-0.5,0.3L30,43.2c0-0.1-0.1-0.2,0.1-0.4
			l1-1.2l-1.2-1.4l1.7,0.9l0.5-0.6c0.1,0.1,0.1,0.5,0.1,0.5c0.5,0,1.9,0.9,2.1,2.7c0,0.1,0,0.1,0,0.2c0,0,0,0,0,0.1
			c0.1,0.1,0.4,0.5,0.8,0.5l2.4,0.2l0,0c0.2,0,0.8-0.3,1.4-0.3c0.3,0,0.8,0.1,1.2,0.3c0,0,0.2-0.2,0.5-0.2h0.1c1.1,0,1.5,1,2.1,1.7
			c0.4,0.6,1,1.5,1,1.5c-0.2,0.2-0.4,0.4-0.8,0.4c-0.1,0-0.2,0-0.3,0c-1.1-0.2-1.3-2.5-1.9-2.7h-0.1c-0.2,0-0.3,0.2-0.3,0.2
			c0.3,0.8,0.1,1.1,0.4,1.7c0.2,0.4,0.6,0.9,0.9,1C41.2,48.3,41.1,48.6,41.1,48.9z M39,51.3c-0.3,0-0.6,0-0.9,0l0.6-2.2
			c0.1-0.3-0.4-0.6-0.6-1c0.3,0.2,1.2,0.6,1.6,0.9C39.7,49.2,39,51.3,39,51.3z M28.8,32.2l0.1-3.7l0.9-0.9l0.5,1.1l-1.1,3.5H28.8z
			 M29.4,33.2c0.1,0.3,0.4,0.4,0.5,0.5c0,0.2,0,0.6-0.1,1.1c0,0.1,0,0.1-0.1,0.2v0.1c-0.2,0-0.8,0-1.2-0.2c-0.4-0.2-1.1-1-1-1.9
			c0.2-0.1,0.6-0.3,1.1-0.3C29,32.8,29.2,32.9,29.4,33.2z M39,34.3c-0.6,0.4-2.3,1.6-2.9,2.1l-5.7-1.1v-0.1c0.1-0.3,0.1-0.8,0.1-1.2
			l4.9,0.1l0.1-0.1c0.1-0.1,1.6-1.5,2.4-2.4c0.2,0.2,0.4,0.4,0.8,0.6C38.5,32.8,38.5,33.6,39,34.3z M31.2,25.8
			c0.6,0.6,1.4,1.1,2.1,1.3c-0.1,0.3-0.2,1,0.1,1.7c0.2,0.5,0.8,1,1.4,1.3c0.1,0.6,0.5,1.7,1.7,2.2c-0.5,0.5-1,1-1.2,1.2l-5-0.1
			C30.2,33.2,30,33.1,30,33c0,0,0,0,0-0.1l0.8,0.1l0,0c0.1,0,0.3-0.1,0.3-0.2c0-0.2-0.1-0.3-0.2-0.3l-1-0.1l1.1-3.7l-1-2.2l-1.7,1.6
			L28.1,32l-1.1-0.2c-0.2,0-0.3,0.1-0.3,0.2c0,0.2,0.1,0.3,0.2,0.3l0.4,0.1c-0.2,0.1-0.3,0.2-0.3,0.2l0,0.1v0.1
			c-0.2,1.1,0.3,2.1,1,2.6v0.1c0,0.2,0,0.3,0.1,0.4c0.1,0.1,0.2,0.2,0.4,0.2h0.1c0.3,0,0.5-0.2,0.6-0.4c0.2,0,0.4,0,0.6,0h0.1
			l6.3,1.2l0.1-0.1c0.5-0.3,2.4-1.7,3-2.2c0.2,0.1,0.3,0.3,0.6,0.4c-0.2,0.6-0.2,1.7,0.5,2.6H24.6v-9.3c0-0.9-0.2-1.8-0.5-2.6h7.1
			V25.8z M30.3,11.7l4.2,1.4v6.6l-3.1-1.6L30.3,11.7z M40.6,10.9c0-1.6-2.7-3-5.7-3l0,0c-3,0-5.7,1.4-5.7,3l0.1,0.4l1.2,6.8
			l-1.2,0.8l-3.1,1.8l0,0c0,0-0.6,0.3-1,0.5c-1.2,0.9-1.4,2.1-0.8,2.5c0.2-1,1-1.9,2.4-1.9c1.1,0,1.8,0.5,2.5,1.3
			c0.2,0.2,0.3,0.4,0.4,0.6c0.2,0.3,0.3,0.5,0.5,0.8h-8c0.5,1.2,1.2,2.5,1.2,3.8v17.8c0,4.3,3.2,6.4,6.8,6.4c2.7,0,3.1-0.1,4.7,1.4
			c1.5-1.5,1.8-1.4,4.7-1.4c3.6,0,6.8-2.1,6.8-6.4V28.4c0-1.4,0.5-2.6,1.2-3.8h-8c0.2-0.2,0.3-0.5,0.5-0.8c0.1-0.2,0.3-0.4,0.4-0.6
			c0.6-0.8,1.4-1.3,2.5-1.3c1.4,0,2.2,1,2.4,1.9c0.6-0.5,0.4-1.7-0.8-2.5c-0.3-0.2-1-0.5-1-0.5l0,0l-3.1-1.8l-1.2-0.6l1.2-6.8
			L40.6,10.9z">
   </path>
  </g>
 </g>
</svg>